# Blender 4.1.0
# www.blender.org
o Cube
v 1.000000 1.000000 -1.000000
v 1.000000 -1.000000 -1.000000
v 1.294450 1.938522 1.180456
v 0.893427 0.291014 0.791984
v -0.553878 0.721672 -0.618746
v -1.000000 -1.000000 -1.000000
v -1.000000 1.000000 1.000000
v -1.000000 -1.000000 1.000000
vn -0.2484 0.9015 -0.3545
vn 0.1092 -0.0000 0.9940
vn -0.9680 0.2508 -0.0000
vn -0.0000 -1.0000 -0.0000
vn 0.9982 -0.0000 0.0594
vn -0.0000 0.2162 -0.9763
vn -0.3494 0.9026 -0.2515
vn 0.0192 -0.2339 0.9721
vn -0.9641 -0.0000 -0.2657
vn 0.5196 -0.6783 0.5196
vn 0.9729 -0.2291 -0.0328
vn -0.2383 -0.0000 -0.9712
vt 0.875000 0.500000
vt 0.625000 0.750000
vt 0.625000 0.500000
vt 0.375000 0.750000
vt 0.625000 1.000000
vt 0.375000 1.000000
vt 0.375000 0.000000
vt 0.625000 0.250000
vt 0.375000 0.250000
vt 0.375000 0.500000
vt 0.125000 0.750000
vt 0.125000 0.500000
vt 0.875000 0.750000
vt 0.625000 0.000000
s 0
f 5/1/1 3/2/1 1/3/1
f 4/4/2 7/5/2 8/6/2
f 8/7/3 5/8/3 6/9/3
f 2/10/4 8/11/4 6/12/4
f 1/3/5 4/4/5 2/10/5
f 5/8/6 2/10/6 6/9/6
f 5/1/7 7/13/7 3/2/7
f 4/4/8 3/2/8 7/5/8
f 8/7/9 7/14/9 5/8/9
f 2/10/10 4/4/10 8/11/10
f 1/3/11 3/2/11 4/4/11
f 5/8/12 1/3/12 2/10/12
